<?xml version="1.0" encoding="UTF-8" standalone="no"?>
<!DOCTYPE svg PUBLIC "-//W3C//DTD SVG 1.1//EN" "http://www.w3.org/Graphics/SVG/1.1/DTD/svg11.dtd">
<svg width="100%" height="100%" viewBox="0 0 188 212" version="1.1" xmlns="http://www.w3.org/2000/svg" xmlns:xlink="http://www.w3.org/1999/xlink" xml:space="preserve" style="fill-rule:evenodd;clip-rule:evenodd;stroke-linejoin:round;stroke-miterlimit:2;">
    <g>
        <ellipse cx="93.568" cy="22.154" rx="93.568" ry="22.154" style="fill:#fff;" />
        <path d="M0,145.351c0.168,12.195 42.03,22.082 93.568,22.082c51.641,0 93.568,-9.927 93.568,-22.154l-0,0c-0,0 -0,31.976 -0,44.203c-0,12.228 -41.927,22.155 -93.568,22.155c-51.642,-0 -93.568,-9.927 -93.568,-22.155l0,-44.203l0,0.072Z" style="fill:#fff;" />
        <path d="M0,90.018c0.168,12.195 42.03,22.083 93.568,22.083c51.641,-0 93.568,-9.927 93.568,-22.154l-0,-0c-0,-0 -0,31.976 -0,44.203c-0,12.227 -41.927,22.154 -93.568,22.154c-51.642,-0 -93.568,-9.927 -93.568,-22.154l0,-44.203l0,0.071Z" style="fill:#fff;" />
        <path d="M0,32.96c0.168,12.196 42.03,22.083 93.568,22.083c51.641,-0 93.568,-9.927 93.568,-22.154l-0,-0c-0,-0 -0,31.976 -0,44.203c-0,12.227 -41.927,22.154 -93.568,22.154c-51.642,0 -93.568,-9.927 -93.568,-22.154l0,-44.203l0,0.071Z" style="fill:#fff;" />
    </g>
</svg>